<svg xmlns="http://www.w3.org/2000/svg" xmlns:xlink="http://www.w3.org/1999/xlink" version="1.1" width="1280" height="720" viewBox="0 0 1280 720"><defs><filter id="fx1" x="-25%" y="-25%" width="150%" height="150%"><feDropShadow dx="2.83" dy="2.83" stdDeviation="2.67" flood-color="#000000" flood-opacity="0.4"/></filter><filter id="fx2" x="-25%" y="-25%" width="150%" height="150%"><feDropShadow dx="2.83" dy="2.83" stdDeviation="2.67" flood-color="#000000" flood-opacity="0.4"/></filter><filter id="fx3" x="-25%" y="-25%" width="150%" height="150%"><feDropShadow dx="2.83" dy="2.83" stdDeviation="2.67" flood-color="#000000" flood-opacity="0.4"/></filter><filter id="fx4" x="-25%" y="-25%" width="150%" height="150%"><feDropShadow dx="2.83" dy="2.83" stdDeviation="2.67" flood-color="#000000" flood-opacity="0.4"/></filter><filter id="fx5" x="-25%" y="-25%" width="150%" height="150%"><feDropShadow dx="4" dy="0" stdDeviation="2.67" flood-color="#000000" flood-opacity="0.4"/></filter><filter id="fx6" x="-25%" y="-25%" width="150%" height="150%"><feDropShadow dx="4" dy="0" stdDeviation="2.67" flood-color="#000000" flood-opacity="0.4"/></filter></defs><rect x="0" y="0" width="1280" height="720" fill="#FFFFFF"/>
<g id="shape-24" data-name="组合 23">
<g id="shape-25" data-name="文本框 24">
<rect x="126.67" y="283.93" width="292.98" height="49.69" fill="none"/>
<text x="410.05" y="300.06" text-anchor="end" xml:space="preserve" font-family="&quot;Century Gothic&quot;, &quot;微软雅黑 Light&quot;, sans-serif" font-size="13.33" fill="#404040"><tspan fill="#404040" font-size="13.33">提供全面且质优的多品类设计素材打破传统素</tspan><tspan x="410.05" dy="17.33" fill="#404040" font-size="13.33">材网站单向沟通的服务模式</tspan></text>
</g>
<g id="shape-26" data-name="文本框 25">
<rect x="164.16" y="250.19" width="255.49" height="35.54" fill="none"/>
<text x="410.05" y="273.12" text-anchor="end" xml:space="preserve" font-family="&quot;Century Gothic&quot;, &quot;微软雅黑 Light&quot;, sans-serif" font-size="21.33" fill="#404040" font-weight="bold"><tspan fill="#404040" font-size="21.33" font-weight="bold">文字输入</tspan></text>
</g>
</g>
<g id="shape-27" data-name="组合 26">
<g id="shape-28" data-name="文本框 27">
<rect x="126.67" y="527.2" width="292.98" height="49.69" fill="none"/>
<text x="410.05" y="543.34" text-anchor="end" xml:space="preserve" font-family="&quot;Century Gothic&quot;, &quot;微软雅黑 Light&quot;, sans-serif" font-size="13.33" fill="#404040"><tspan fill="#404040" font-size="13.33">提供全面且质优的多品类设计素材打破传统素</tspan><tspan x="410.05" dy="17.33" fill="#404040" font-size="13.33">材网站单向沟通的服务模式</tspan></text>
</g>
<g id="shape-29" data-name="文本框 28">
<rect x="164.16" y="493.46" width="255.49" height="35.54" fill="none"/>
<text x="410.05" y="516.4" text-anchor="end" xml:space="preserve" font-family="&quot;Century Gothic&quot;, &quot;微软雅黑 Light&quot;, sans-serif" font-size="21.33" fill="#404040" font-weight="bold"><tspan fill="#404040" font-size="21.33" font-weight="bold">文字输入</tspan></text>
</g>
</g>
<g id="shape-30" data-name="组合 29">
<g id="shape-31" data-name="文本框 30">
<rect x="862.18" y="283.93" width="292.98" height="49.69" fill="none"/>
<text x="871.78" y="300.06" text-anchor="start" xml:space="preserve" font-family="&quot;Century Gothic&quot;, &quot;微软雅黑 Light&quot;, sans-serif" font-size="13.33" fill="#404040"><tspan fill="#404040" font-size="13.33">提供全面且质优的多品类设计素材打破传统素</tspan><tspan x="871.78" dy="17.33" fill="#404040" font-size="13.33">材网站单向沟通的服务模式</tspan></text>
</g>
<g id="shape-32" data-name="文本框 31">
<rect x="862.18" y="250.19" width="255.49" height="35.54" fill="none"/>
<text x="871.78" y="273.12" text-anchor="start" xml:space="preserve" font-family="&quot;Century Gothic&quot;, &quot;微软雅黑 Light&quot;, sans-serif" font-size="21.33" fill="#404040" font-weight="bold"><tspan fill="#404040" font-size="21.33" font-weight="bold">文字输入</tspan></text>
</g>
</g>
<g id="shape-33" data-name="组合 32">
<g id="shape-34" data-name="文本框 33">
<rect x="862.18" y="527.2" width="292.98" height="49.69" fill="none"/>
<text x="871.78" y="543.34" text-anchor="start" xml:space="preserve" font-family="&quot;Century Gothic&quot;, &quot;微软雅黑 Light&quot;, sans-serif" font-size="13.33" fill="#404040"><tspan fill="#404040" font-size="13.33">提供全面且质优的多品类设计素材打破传统素</tspan><tspan x="871.78" dy="17.33" fill="#404040" font-size="13.33">材网站单向沟通的服务模式</tspan></text>
</g>
<g id="shape-35" data-name="文本框 34">
<rect x="862.18" y="493.46" width="255.49" height="35.54" fill="none"/>
<text x="871.78" y="516.4" text-anchor="start" xml:space="preserve" font-family="&quot;Century Gothic&quot;, &quot;微软雅黑 Light&quot;, sans-serif" font-size="21.33" fill="#404040" font-weight="bold"><tspan fill="#404040" font-size="21.33" font-weight="bold">文字输入</tspan></text>
</g>
</g>
<g id="shape-44" data-name="组合 43">
<g id="shape-23" data-name="组合 22">
<g id="shape-3" data-name="ExtraShape">
<rect x="480.14" y="239.51" width="317.56" height="319.73" fill="#FFC000" stroke-width="4" stroke="none" filter="url(#fx1)"/>
</g>
<g id="shape-4" data-name="ExtraShape">
<rect x="468.21" y="219.66" width="343.58" height="343.58" fill="#17375E" stroke-width="4" stroke="none" filter="url(#fx2)"/>
</g>
<g id="shape-5" data-name="ExtraShape">
<rect x="444.35" y="195.81" width="391.29" height="391.29" fill="#FFC000" stroke-width="4" stroke="none" filter="url(#fx3)"/>
</g>
<g id="shape-6" data-name="ExtraShape">
<rect x="422.67" y="172.83" width="434.67" height="434.67" fill="#17375E" stroke-width="4" stroke="none" filter="url(#fx4)"/>
</g>
</g>
<g id="shape-37" data-name="椭圆 35">
<path d="M 594.96 430.56 L 628.25 430.56 C 630.78 430.56 632.83 432.45 632.83 434.98 C 632.83 437.5 630.78 439.55 628.25 439.55 L 594.96 439.55 C 592.6 439.55 590.55 437.5 590.55 434.98 C 590.55 432.45 592.6 430.56 594.96 430.56 Z M 594.96 419.23 L 618.93 419.23 C 622.88 422.06 627.45 424.27 632.5 425.22 C 631.87 426.95 630.29 428.21 628.24 428.21 L 594.96 428.21 C 592.6 428.21 590.55 426.16 590.55 423.64 C 590.55 421.28 592.6 419.23 594.96 419.23 Z M 670.69 408.68 L 684.88 408.68 C 687.4 408.68 689.45 410.72 689.45 413.09 C 689.45 415.61 687.4 417.66 684.88 417.66 L 663.11 417.66 C 666.11 415.14 668.63 411.99 670.69 408.68 Z M 594.96 407.89 L 608.84 407.89 C 610.74 411.35 613.1 414.33 616.1 416.85 L 594.96 416.85 C 592.6 416.85 590.55 414.81 590.55 412.45 C 590.55 409.93 592.6 407.89 594.96 407.89 Z M 675.26 397.34 L 684.88 397.34 C 687.4 397.34 689.45 399.38 689.45 401.9 C 689.45 404.25 687.4 406.3 684.88 406.3 L 671.94 406.3 C 673.52 403.47 674.47 400.48 675.26 397.34 Z M 594.96 396.53 L 604.58 396.53 C 605.21 399.68 606.16 402.68 607.57 405.51 L 594.96 405.51 C 592.6 405.51 590.55 403.62 590.55 401.1 C 590.55 398.58 592.6 396.53 594.96 396.53 Z M 641.35 392.45 L 641.35 400.64 C 643.72 400.48 646.4 399.22 646.4 396.55 C 646.4 393.87 643.56 392.92 641.35 392.45 Z M 675.75 385.98 L 684.89 385.98 C 687.41 385.98 689.45 388.03 689.45 390.55 C 689.45 392.91 687.41 394.96 684.89 394.96 L 675.59 394.96 C 675.75 393.39 675.9 391.81 675.9 390.08 C 675.9 388.66 675.9 387.4 675.75 385.98 Z M 594.97 385.19 L 604.44 385.19 C 604.12 386.93 603.96 388.5 603.96 390.08 C 603.96 391.5 604.12 392.92 604.28 394.18 L 594.97 394.18 C 592.6 394.18 590.55 392.29 590.55 389.76 C 590.55 387.24 592.6 385.19 594.97 385.19 Z M 638.83 379.38 C 635.99 379.38 634.25 381.11 634.25 382.84 C 634.25 384.89 635.83 385.99 638.83 386.62 Z M 672.43 374.64 L 684.88 374.64 C 687.4 374.64 689.45 376.69 689.45 379.21 C 689.45 381.73 687.4 383.63 684.88 383.63 L 675.26 383.63 C 674.79 380.47 673.69 377.48 672.43 374.64 Z M 594.96 374.01 L 607.9 374.01 C 606.48 376.69 605.38 379.84 604.75 382.99 L 594.96 382.99 C 592.6 382.99 590.55 380.94 590.55 378.42 C 590.55 375.9 592.6 374.01 594.96 374.01 Z M 640.09 371.66 C 640.72 371.66 641.35 372.29 641.35 373.08 L 641.35 375.12 C 644.51 375.28 650.98 377.33 650.98 381.27 C 650.98 382.84 649.87 383.79 648.45 383.79 C 645.77 383.79 645.77 379.38 641.35 379.38 L 641.35 387.1 C 646.72 388.2 651.45 389.77 651.45 396.07 C 651.45 401.59 647.35 404.42 641.35 404.74 L 641.35 407.26 C 641.35 407.89 640.72 408.68 640.09 408.68 C 639.3 408.68 638.83 407.89 638.83 407.26 L 638.83 404.74 C 631.89 404.58 628.58 400.48 628.58 397.18 C 628.58 395.6 629.52 394.66 631.1 394.66 C 635.67 394.66 632.05 400.33 638.83 400.64 L 638.83 391.98 C 632.83 390.88 629.05 388.36 629.05 383.79 C 629.05 378.27 633.78 375.28 638.83 375.12 L 638.83 373.08 C 638.83 372.29 639.3 371.66 640.09 371.66 Z M 639.92 367.73 C 627.62 367.73 617.53 377.81 617.53 390.09 C 617.53 402.53 627.62 412.6 639.92 412.6 C 652.38 412.6 662.47 402.53 662.47 390.09 C 662.47 377.81 652.38 367.73 639.92 367.73 Z M 663.9 363.46 L 684.88 363.46 C 687.4 363.46 689.45 365.35 689.45 367.87 C 689.45 370.39 687.4 372.44 684.88 372.44 L 671.16 372.44 C 669.26 368.98 666.74 365.98 663.9 363.46 Z M 594.96 362.68 L 616.89 362.68 C 613.89 365.2 611.37 368.19 609.16 371.66 L 594.96 371.66 C 592.6 371.66 590.55 369.61 590.55 367.09 C 590.55 364.72 592.6 362.68 594.96 362.68 Z M 639.92 358.75 C 657.27 358.75 671.46 372.77 671.46 390.09 C 671.46 407.41 657.27 421.58 639.92 421.58 C 622.57 421.58 608.54 407.41 608.54 390.09 C 608.54 372.77 622.57 358.75 639.92 358.75 Z M 651.6 352.12 L 684.88 352.12 C 687.4 352.12 689.45 354.17 689.45 356.54 C 689.45 359.06 687.4 361.11 684.88 361.11 L 660.91 361.11 C 656.97 358.27 652.39 356.06 647.5 354.96 C 648.13 353.38 649.71 352.12 651.6 352.12 Z M 651.59 340.79 L 684.88 340.79 C 687.4 340.79 689.45 342.84 689.45 345.2 C 689.45 347.72 687.4 349.77 684.88 349.77 L 651.59 349.77 C 649.22 349.77 647.17 347.72 647.17 345.2 C 647.17 342.84 649.22 340.79 651.59 340.79 Z" stroke="none" fill="#E92E25" stroke-width="1"/>
</g>
</g>
<g id="shape-36" data-name="组合 35">
<g id="shape-45" data-name="组合 44">
<g id="shape-49" data-name="文本框 48">
<rect x="71.16" y="24.26" width="211.92" height="54.93" fill="none"/>
<text x="80.76" y="60.8" text-anchor="start" xml:space="preserve" font-family="&quot;Century Gothic&quot;, &quot;微软雅黑 Light&quot;, sans-serif" font-size="37.33" fill="#404040"><tspan fill="#404040" font-size="37.33">4. </tspan><tspan fill="#404040" font-size="37.33">下步计划</tspan></text>
</g>
<g id="shape-50" data-name="文本框 49">
<rect x="79.76" y="76.92" width="458.3" height="29.08" fill="none"/>
<text x="89.36" y="95.32" text-anchor="start" xml:space="preserve" font-family="&quot;Century Gothic&quot;, &quot;微软雅黑 Light&quot;, sans-serif" font-size="16" fill="#404040"><tspan fill="#404040" font-size="16">The user can demonstrate on a projector or computer</tspan></text>
</g>
</g>
<g id="shape-46" data-name="组合 45">
<g id="shape-47" data-name="矩形 46">
<rect x="0" y="30.38" width="21.49" height="69.52" fill="#FFC000" stroke="none" stroke-width="1" filter="url(#fx5)"/>
</g>
<g id="shape-48" data-name="矩形 47">
<rect x="33.41" y="30.38" width="14.76" height="69.52" fill="#17375E" stroke="none" stroke-width="1" filter="url(#fx6)"/>
</g>
</g>
</g>
<g id="shape-38" data-name="图片 37">
<image href="../assets/image3.png" x="1147.21" y="18.9" width="115.81" height="116.04" preserveAspectRatio="none"/>
</g></svg>